<mxfile host="app.diagrams.net" agent="Mozilla/5.0 (X11; Linux x86_64) AppleWebKit/537.36 (KHTML, like Gecko) Chrome/131.0.0.0 Safari/537.36" version="24.9.2">
  <diagram name="Page-1" id="xdNO-wtEi7Ypv27mEj1e">
    <mxGraphModel dx="1187" dy="1760" grid="1" gridSize="13" guides="1" tooltips="1" connect="1" arrows="1" fold="1" page="1" pageScale="1" pageWidth="850" pageHeight="1100" math="0" shadow="0">
      <root>
        <mxCell id="0" />
        <mxCell id="1" parent="0" />
        <mxCell id="vwZq9Y9TnrJTcbUkJgKD-1" style="rounded=0;orthogonalLoop=1;jettySize=auto;html=1;fontSize=12;startSize=8;endSize=8;strokeColor=default;endArrow=none;endFill=0;startArrow=none;startFill=0;strokeWidth=1;" parent="1" source="vwZq9Y9TnrJTcbUkJgKD-8" target="vwZq9Y9TnrJTcbUkJgKD-15" edge="1">
          <mxGeometry relative="1" as="geometry" />
        </mxCell>
        <mxCell id="vwZq9Y9TnrJTcbUkJgKD-3" style="rounded=0;orthogonalLoop=1;jettySize=auto;html=1;fontSize=12;startSize=8;endSize=8;strokeColor=default;endArrow=none;endFill=0;startArrow=none;startFill=0;strokeWidth=1;" parent="1" source="vwZq9Y9TnrJTcbUkJgKD-8" target="vwZq9Y9TnrJTcbUkJgKD-11" edge="1">
          <mxGeometry relative="1" as="geometry" />
        </mxCell>
        <mxCell id="vwZq9Y9TnrJTcbUkJgKD-5" style="rounded=0;orthogonalLoop=1;jettySize=auto;html=1;fontSize=12;startSize=8;endSize=8;strokeColor=default;endArrow=none;endFill=0;startArrow=none;startFill=0;strokeWidth=1;" parent="1" source="vwZq9Y9TnrJTcbUkJgKD-8" target="vwZq9Y9TnrJTcbUkJgKD-14" edge="1">
          <mxGeometry relative="1" as="geometry" />
        </mxCell>
        <mxCell id="vwZq9Y9TnrJTcbUkJgKD-8" value="Users" style="whiteSpace=wrap;html=1;strokeColor=default;" parent="1" vertex="1">
          <mxGeometry x="1093.75" y="517.5" width="120" height="40" as="geometry" />
        </mxCell>
        <mxCell id="vwZq9Y9TnrJTcbUkJgKD-11" value="role" style="ellipse;whiteSpace=wrap;html=1;" parent="1" vertex="1">
          <mxGeometry x="1255" y="517.5" width="90" height="40" as="geometry" />
        </mxCell>
        <mxCell id="vwZq9Y9TnrJTcbUkJgKD-12" value="email" style="ellipse;whiteSpace=wrap;html=1;" parent="1" vertex="1">
          <mxGeometry x="975" y="557.5" width="90" height="40" as="geometry" />
        </mxCell>
        <mxCell id="vwZq9Y9TnrJTcbUkJgKD-13" value="password" style="ellipse;whiteSpace=wrap;html=1;" parent="1" vertex="1">
          <mxGeometry x="1023.75" y="437.5" width="90" height="40" as="geometry" />
        </mxCell>
        <mxCell id="vwZq9Y9TnrJTcbUkJgKD-14" value="username" style="ellipse;whiteSpace=wrap;html=1;" parent="1" vertex="1">
          <mxGeometry x="1040" y="612.5" width="90" height="40" as="geometry" />
        </mxCell>
        <mxCell id="vwZq9Y9TnrJTcbUkJgKD-15" value="&lt;strong&gt;user_id&lt;/strong&gt; (PK)" style="ellipse;whiteSpace=wrap;html=1;fillColor=#f8cecc;strokeColor=#b85450;fontStyle=5" parent="1" vertex="1">
          <mxGeometry x="1193.75" y="432.5" width="90" height="40" as="geometry" />
        </mxCell>
        <mxCell id="vwZq9Y9TnrJTcbUkJgKD-17" style="rounded=0;orthogonalLoop=1;jettySize=auto;html=1;fontSize=12;startSize=8;endSize=8;strokeColor=default;endArrow=none;endFill=0;startArrow=none;startFill=0;strokeWidth=1;" parent="1" source="vwZq9Y9TnrJTcbUkJgKD-8" target="vwZq9Y9TnrJTcbUkJgKD-12" edge="1">
          <mxGeometry relative="1" as="geometry" />
        </mxCell>
        <mxCell id="vwZq9Y9TnrJTcbUkJgKD-19" style="rounded=0;orthogonalLoop=1;jettySize=auto;html=1;fontSize=12;startSize=8;endSize=8;strokeColor=default;endArrow=none;endFill=0;startArrow=none;startFill=0;strokeWidth=1;" parent="1" source="vwZq9Y9TnrJTcbUkJgKD-8" target="vwZq9Y9TnrJTcbUkJgKD-13" edge="1">
          <mxGeometry relative="1" as="geometry" />
        </mxCell>
        <mxCell id="vwZq9Y9TnrJTcbUkJgKD-20" style="edgeStyle=none;curved=0;rounded=0;orthogonalLoop=1;jettySize=auto;html=1;exitX=0;exitY=0;exitDx=0;exitDy=0;fontSize=12;startSize=8;endSize=8;strokeColor=default;endArrow=none;endFill=0;startArrow=none;startFill=0;strokeWidth=1;" parent="1" source="vwZq9Y9TnrJTcbUkJgKD-27" target="vwZq9Y9TnrJTcbUkJgKD-34" edge="1">
          <mxGeometry relative="1" as="geometry" />
        </mxCell>
        <mxCell id="vwZq9Y9TnrJTcbUkJgKD-21" style="edgeStyle=none;curved=0;rounded=0;orthogonalLoop=1;jettySize=auto;html=1;fontSize=12;startSize=8;endSize=8;strokeColor=default;endArrow=none;endFill=0;startArrow=none;startFill=0;strokeWidth=1;" parent="1" source="vwZq9Y9TnrJTcbUkJgKD-27" target="vwZq9Y9TnrJTcbUkJgKD-29" edge="1">
          <mxGeometry relative="1" as="geometry" />
        </mxCell>
        <mxCell id="vwZq9Y9TnrJTcbUkJgKD-22" style="edgeStyle=none;curved=0;rounded=0;orthogonalLoop=1;jettySize=auto;html=1;fontSize=12;startSize=8;endSize=8;strokeColor=default;endArrow=none;endFill=0;startArrow=none;startFill=0;strokeWidth=1;" parent="1" source="vwZq9Y9TnrJTcbUkJgKD-27" target="vwZq9Y9TnrJTcbUkJgKD-30" edge="1">
          <mxGeometry relative="1" as="geometry" />
        </mxCell>
        <mxCell id="vwZq9Y9TnrJTcbUkJgKD-23" style="edgeStyle=none;curved=0;rounded=0;orthogonalLoop=1;jettySize=auto;html=1;fontSize=12;startSize=8;endSize=8;strokeColor=default;endArrow=none;endFill=0;startArrow=none;startFill=0;strokeWidth=1;" parent="1" source="vwZq9Y9TnrJTcbUkJgKD-27" target="vwZq9Y9TnrJTcbUkJgKD-35" edge="1">
          <mxGeometry relative="1" as="geometry" />
        </mxCell>
        <mxCell id="vwZq9Y9TnrJTcbUkJgKD-24" style="edgeStyle=none;curved=0;rounded=0;orthogonalLoop=1;jettySize=auto;html=1;fontSize=12;startSize=8;endSize=8;strokeColor=default;endArrow=none;endFill=0;startArrow=none;startFill=0;strokeWidth=1;" parent="1" source="vwZq9Y9TnrJTcbUkJgKD-27" target="HvHesekv2nDa_G__FXom-8" edge="1">
          <mxGeometry relative="1" as="geometry" />
        </mxCell>
        <mxCell id="vwZq9Y9TnrJTcbUkJgKD-25" value="" style="edgeStyle=none;curved=1;rounded=0;orthogonalLoop=1;jettySize=auto;html=1;fontSize=12;startSize=8;endSize=8;endArrow=none;endFill=0;startArrow=none;startFill=0;" parent="1" source="vwZq9Y9TnrJTcbUkJgKD-27" target="vwZq9Y9TnrJTcbUkJgKD-39" edge="1">
          <mxGeometry relative="1" as="geometry" />
        </mxCell>
        <mxCell id="vwZq9Y9TnrJTcbUkJgKD-26" value="" style="edgeStyle=none;curved=1;rounded=0;orthogonalLoop=1;jettySize=auto;html=1;fontSize=12;startSize=8;endSize=8;targetPerimeterSpacing=-1;startArrow=none;startFill=0;endArrow=none;endFill=0;" parent="1" source="vwZq9Y9TnrJTcbUkJgKD-27" target="vwZq9Y9TnrJTcbUkJgKD-40" edge="1">
          <mxGeometry relative="1" as="geometry" />
        </mxCell>
        <mxCell id="vwZq9Y9TnrJTcbUkJgKD-27" value="Movie" style="whiteSpace=wrap;html=1;strokeColor=default;" parent="1" vertex="1">
          <mxGeometry x="1860" y="517.5" width="120" height="40" as="geometry" />
        </mxCell>
        <mxCell id="vwZq9Y9TnrJTcbUkJgKD-28" value="title" style="ellipse;whiteSpace=wrap;html=1;" parent="1" vertex="1">
          <mxGeometry x="1855" y="390" width="56" height="39" as="geometry" />
        </mxCell>
        <mxCell id="vwZq9Y9TnrJTcbUkJgKD-29" value="release_year" style="ellipse;whiteSpace=wrap;html=1;" parent="1" vertex="1">
          <mxGeometry x="2070" y="557.5" width="90" height="40" as="geometry" />
        </mxCell>
        <mxCell id="vwZq9Y9TnrJTcbUkJgKD-30" value="language" style="ellipse;whiteSpace=wrap;html=1;" parent="1" vertex="1">
          <mxGeometry x="1980" y="597.5" width="90" height="40" as="geometry" />
        </mxCell>
        <mxCell id="vwZq9Y9TnrJTcbUkJgKD-31" value="&lt;strong&gt;genre_id&lt;/strong&gt; (FK)" style="ellipse;whiteSpace=wrap;html=1;fillColor=#dae8fc;strokeColor=#6c8ebf;" parent="1" vertex="1">
          <mxGeometry x="1692.5" y="477.5" width="90" height="40" as="geometry" />
        </mxCell>
        <mxCell id="vwZq9Y9TnrJTcbUkJgKD-32" value="avg_rating" style="ellipse;whiteSpace=wrap;html=1;" parent="1" vertex="1">
          <mxGeometry x="2095" y="495" width="70" height="35" as="geometry" />
        </mxCell>
        <mxCell id="vwZq9Y9TnrJTcbUkJgKD-33" value="&lt;strong&gt;actor_id&lt;/strong&gt; (FK)" style="ellipse;whiteSpace=wrap;html=1;fillColor=#dae8fc;strokeColor=#6c8ebf;" parent="1" vertex="1">
          <mxGeometry x="1735" y="557.5" width="90" height="40" as="geometry" />
        </mxCell>
        <mxCell id="vwZq9Y9TnrJTcbUkJgKD-34" value="&lt;strong&gt;movie_id&lt;/strong&gt; (PK)" style="ellipse;whiteSpace=wrap;html=1;fillColor=#f8cecc;strokeColor=#b85450;fontStyle=5" parent="1" vertex="1">
          <mxGeometry x="1765" y="427.5" width="90" height="40" as="geometry" />
        </mxCell>
        <mxCell id="vwZq9Y9TnrJTcbUkJgKD-35" value="description" style="ellipse;whiteSpace=wrap;html=1;" parent="1" vertex="1">
          <mxGeometry x="1970" y="402.5" width="90" height="40" as="geometry" />
        </mxCell>
        <mxCell id="vwZq9Y9TnrJTcbUkJgKD-36" style="edgeStyle=none;curved=0;rounded=0;orthogonalLoop=1;jettySize=auto;html=1;fontSize=12;startSize=8;endSize=8;strokeColor=default;endArrow=none;endFill=0;startArrow=none;startFill=0;strokeWidth=1;" parent="1" source="vwZq9Y9TnrJTcbUkJgKD-27" target="HvHesekv2nDa_G__FXom-6" edge="1">
          <mxGeometry relative="1" as="geometry" />
        </mxCell>
        <mxCell id="vwZq9Y9TnrJTcbUkJgKD-37" style="edgeStyle=none;curved=0;rounded=0;orthogonalLoop=1;jettySize=auto;html=1;fontSize=12;startSize=8;endSize=8;strokeColor=default;endArrow=none;endFill=0;startArrow=none;startFill=0;strokeWidth=1;" parent="1" source="vwZq9Y9TnrJTcbUkJgKD-27" target="vwZq9Y9TnrJTcbUkJgKD-28" edge="1">
          <mxGeometry relative="1" as="geometry" />
        </mxCell>
        <mxCell id="vwZq9Y9TnrJTcbUkJgKD-38" style="edgeStyle=none;curved=0;rounded=0;orthogonalLoop=1;jettySize=auto;html=1;fontSize=12;startSize=8;endSize=8;strokeColor=default;endArrow=none;endFill=0;startArrow=none;startFill=0;strokeWidth=1;" parent="1" source="vwZq9Y9TnrJTcbUkJgKD-27" target="vwZq9Y9TnrJTcbUkJgKD-32" edge="1">
          <mxGeometry relative="1" as="geometry" />
        </mxCell>
        <mxCell id="vwZq9Y9TnrJTcbUkJgKD-39" value="rental_price" style="ellipse;whiteSpace=wrap;html=1;" parent="1" vertex="1">
          <mxGeometry x="1815" y="612.5" width="90" height="40" as="geometry" />
        </mxCell>
        <mxCell id="vwZq9Y9TnrJTcbUkJgKD-40" value="available_copies" style="ellipse;whiteSpace=wrap;html=1;" parent="1" vertex="1">
          <mxGeometry x="2065" y="422.5" width="100" height="45" as="geometry" />
        </mxCell>
        <mxCell id="vwZq9Y9TnrJTcbUkJgKD-41" style="edgeStyle=none;curved=0;rounded=0;orthogonalLoop=1;jettySize=auto;html=1;fontSize=12;startSize=8;endSize=8;strokeColor=default;endArrow=none;endFill=0;startArrow=none;startFill=0;strokeWidth=1;" parent="1" source="vwZq9Y9TnrJTcbUkJgKD-43" target="vwZq9Y9TnrJTcbUkJgKD-44" edge="1">
          <mxGeometry relative="1" as="geometry" />
        </mxCell>
        <mxCell id="vwZq9Y9TnrJTcbUkJgKD-42" value="" style="edgeStyle=none;curved=1;rounded=0;orthogonalLoop=1;jettySize=auto;html=1;fontSize=12;startSize=8;endSize=8;targetPerimeterSpacing=-1;startArrow=none;startFill=0;endArrow=none;endFill=0;" parent="1" source="vwZq9Y9TnrJTcbUkJgKD-43" target="vwZq9Y9TnrJTcbUkJgKD-45" edge="1">
          <mxGeometry relative="1" as="geometry" />
        </mxCell>
        <mxCell id="vwZq9Y9TnrJTcbUkJgKD-43" value="Genre" style="whiteSpace=wrap;html=1;strokeColor=default;" parent="1" vertex="1">
          <mxGeometry x="2333.75" y="748.75" width="120" height="40" as="geometry" />
        </mxCell>
        <mxCell id="vwZq9Y9TnrJTcbUkJgKD-44" value="&lt;strong&gt;genre_name&lt;/strong&gt;&amp;nbsp;(PK)" style="ellipse;whiteSpace=wrap;html=1;fillColor=#f8cecc;strokeColor=#b85450;fontStyle=5" parent="1" vertex="1">
          <mxGeometry x="2268.75" y="660" width="101.25" height="58.75" as="geometry" />
        </mxCell>
        <mxCell id="vwZq9Y9TnrJTcbUkJgKD-45" value="description" style="ellipse;whiteSpace=wrap;html=1;" parent="1" vertex="1">
          <mxGeometry x="2438.75" y="678.75" width="100" height="45" as="geometry" />
        </mxCell>
        <mxCell id="vwZq9Y9TnrJTcbUkJgKD-46" style="edgeStyle=none;curved=0;rounded=0;orthogonalLoop=1;jettySize=auto;html=1;fontSize=12;startSize=8;endSize=8;strokeColor=default;endArrow=none;endFill=0;startArrow=none;startFill=0;strokeWidth=1;" parent="1" source="vwZq9Y9TnrJTcbUkJgKD-53" target="vwZq9Y9TnrJTcbUkJgKD-55" edge="1">
          <mxGeometry relative="1" as="geometry" />
        </mxCell>
        <mxCell id="vwZq9Y9TnrJTcbUkJgKD-47" style="edgeStyle=orthogonalEdgeStyle;rounded=0;orthogonalLoop=1;jettySize=auto;html=1;fontSize=12;startSize=8;endSize=8;endArrow=none;endFill=0;" parent="1" source="vwZq9Y9TnrJTcbUkJgKD-53" target="vwZq9Y9TnrJTcbUkJgKD-27" edge="1">
          <mxGeometry relative="1" as="geometry">
            <Array as="points">
              <mxPoint x="1937" y="771" />
            </Array>
          </mxGeometry>
        </mxCell>
        <mxCell id="vwZq9Y9TnrJTcbUkJgKD-48" value="1" style="edgeLabel;html=1;align=center;verticalAlign=middle;resizable=0;points=[];fontSize=12;" parent="vwZq9Y9TnrJTcbUkJgKD-47" vertex="1" connectable="0">
          <mxGeometry x="0.8234" relative="1" as="geometry">
            <mxPoint y="7" as="offset" />
          </mxGeometry>
        </mxCell>
        <mxCell id="vwZq9Y9TnrJTcbUkJgKD-49" value="m" style="edgeLabel;html=1;align=center;verticalAlign=middle;resizable=0;points=[];fontSize=12;" parent="vwZq9Y9TnrJTcbUkJgKD-47" vertex="1" connectable="0">
          <mxGeometry x="-0.791" y="-2" relative="1" as="geometry">
            <mxPoint x="16" as="offset" />
          </mxGeometry>
        </mxCell>
        <mxCell id="vwZq9Y9TnrJTcbUkJgKD-50" style="edgeStyle=none;curved=1;rounded=0;orthogonalLoop=1;jettySize=auto;html=1;fontSize=12;startSize=8;endSize=8;endArrow=none;endFill=0;" parent="1" source="vwZq9Y9TnrJTcbUkJgKD-53" target="vwZq9Y9TnrJTcbUkJgKD-43" edge="1">
          <mxGeometry relative="1" as="geometry" />
        </mxCell>
        <mxCell id="vwZq9Y9TnrJTcbUkJgKD-51" value="1" style="edgeLabel;html=1;align=center;verticalAlign=middle;resizable=0;points=[];fontSize=12;" parent="vwZq9Y9TnrJTcbUkJgKD-50" vertex="1" connectable="0">
          <mxGeometry x="0.6928" relative="1" as="geometry">
            <mxPoint as="offset" />
          </mxGeometry>
        </mxCell>
        <mxCell id="7WjgQxB0nHzjTj8IJ9Qh-1" value="m" style="edgeLabel;html=1;align=center;verticalAlign=middle;resizable=0;points=[];" parent="vwZq9Y9TnrJTcbUkJgKD-50" vertex="1" connectable="0">
          <mxGeometry x="-0.6408" y="-1" relative="1" as="geometry">
            <mxPoint as="offset" />
          </mxGeometry>
        </mxCell>
        <mxCell id="vwZq9Y9TnrJTcbUkJgKD-53" value="Movie_Genre" style="whiteSpace=wrap;html=1;strokeColor=default;" parent="1" vertex="1">
          <mxGeometry x="2030" y="748.75" width="120" height="40" as="geometry" />
        </mxCell>
        <mxCell id="vwZq9Y9TnrJTcbUkJgKD-54" value="&lt;strong&gt;genre_name&lt;/strong&gt;&amp;nbsp;(FK)" style="ellipse;whiteSpace=wrap;html=1;fillColor=#dae8fc;strokeColor=#6c8ebf;fontStyle=1;direction=west;" parent="1" vertex="1">
          <mxGeometry x="2037.5" y="670" width="105" height="48.75" as="geometry" />
        </mxCell>
        <mxCell id="vwZq9Y9TnrJTcbUkJgKD-55" value="&lt;strong&gt;movie_id&lt;/strong&gt; (FK)" style="ellipse;whiteSpace=wrap;html=1;fillColor=#dae8fc;strokeColor=#6c8ebf;fontStyle=1" parent="1" vertex="1">
          <mxGeometry x="2041.25" y="817.5" width="97.5" height="52.5" as="geometry" />
        </mxCell>
        <mxCell id="vwZq9Y9TnrJTcbUkJgKD-56" style="edgeStyle=none;curved=0;rounded=0;orthogonalLoop=1;jettySize=auto;html=1;fontSize=12;startSize=8;endSize=8;strokeColor=default;endArrow=none;endFill=0;startArrow=none;startFill=0;strokeWidth=1;" parent="1" source="vwZq9Y9TnrJTcbUkJgKD-53" target="vwZq9Y9TnrJTcbUkJgKD-54" edge="1">
          <mxGeometry relative="1" as="geometry" />
        </mxCell>
        <mxCell id="vwZq9Y9TnrJTcbUkJgKD-57" style="edgeStyle=none;curved=0;rounded=0;orthogonalLoop=1;jettySize=auto;html=1;fontSize=12;startSize=8;endSize=8;strokeColor=default;endArrow=none;endFill=0;startArrow=none;startFill=0;strokeWidth=1;" parent="1" source="vwZq9Y9TnrJTcbUkJgKD-58" target="vwZq9Y9TnrJTcbUkJgKD-60" edge="1">
          <mxGeometry relative="1" as="geometry" />
        </mxCell>
        <mxCell id="vwZq9Y9TnrJTcbUkJgKD-58" value="Actor" style="whiteSpace=wrap;html=1;strokeColor=default;" parent="1" vertex="1">
          <mxGeometry x="2263.75" y="140" width="120" height="40" as="geometry" />
        </mxCell>
        <mxCell id="vwZq9Y9TnrJTcbUkJgKD-59" value="actor_name" style="ellipse;whiteSpace=wrap;html=1;" parent="1" vertex="1">
          <mxGeometry x="2400" y="180" width="90" height="40" as="geometry" />
        </mxCell>
        <mxCell id="vwZq9Y9TnrJTcbUkJgKD-60" value="&lt;strong&gt;actor_id&lt;/strong&gt; (PK)" style="ellipse;whiteSpace=wrap;html=1;fillColor=#f8cecc;strokeColor=#b85450;fontStyle=5;align=center;" parent="1" vertex="1">
          <mxGeometry x="2160" y="180" width="90" height="40" as="geometry" />
        </mxCell>
        <mxCell id="vwZq9Y9TnrJTcbUkJgKD-61" style="edgeStyle=none;curved=0;rounded=0;orthogonalLoop=1;jettySize=auto;html=1;fontSize=12;startSize=8;endSize=8;strokeColor=default;endArrow=none;endFill=0;startArrow=none;startFill=0;strokeWidth=1;" parent="1" source="vwZq9Y9TnrJTcbUkJgKD-58" target="vwZq9Y9TnrJTcbUkJgKD-59" edge="1">
          <mxGeometry relative="1" as="geometry" />
        </mxCell>
        <mxCell id="vwZq9Y9TnrJTcbUkJgKD-62" style="edgeStyle=none;curved=0;rounded=0;orthogonalLoop=1;jettySize=auto;html=1;exitX=0;exitY=0;exitDx=0;exitDy=0;fontSize=12;startSize=8;endSize=8;strokeColor=default;endArrow=none;endFill=0;startArrow=none;startFill=0;strokeWidth=1;" parent="1" source="vwZq9Y9TnrJTcbUkJgKD-66" target="vwZq9Y9TnrJTcbUkJgKD-69" edge="1">
          <mxGeometry relative="1" as="geometry" />
        </mxCell>
        <mxCell id="vwZq9Y9TnrJTcbUkJgKD-63" style="edgeStyle=orthogonalEdgeStyle;rounded=0;orthogonalLoop=1;jettySize=auto;html=1;entryX=0.5;entryY=0;entryDx=0;entryDy=0;fontSize=12;startSize=8;endSize=8;endArrow=none;endFill=0;" parent="1" source="vwZq9Y9TnrJTcbUkJgKD-66" target="vwZq9Y9TnrJTcbUkJgKD-27" edge="1">
          <mxGeometry relative="1" as="geometry" />
        </mxCell>
        <mxCell id="7WjgQxB0nHzjTj8IJ9Qh-6" value="m" style="edgeLabel;html=1;align=center;verticalAlign=middle;resizable=0;points=[];" parent="vwZq9Y9TnrJTcbUkJgKD-63" vertex="1" connectable="0">
          <mxGeometry x="-0.8436" y="2" relative="1" as="geometry">
            <mxPoint as="offset" />
          </mxGeometry>
        </mxCell>
        <mxCell id="vwZq9Y9TnrJTcbUkJgKD-66" value="Casting (Movie_Actor)" style="whiteSpace=wrap;html=1;strokeColor=default;" parent="1" vertex="1">
          <mxGeometry x="2268.75" y="320" width="120" height="40" as="geometry" />
        </mxCell>
        <mxCell id="vwZq9Y9TnrJTcbUkJgKD-68" value="&lt;strong&gt;actor_id&lt;/strong&gt; (FK)" style="ellipse;whiteSpace=wrap;html=1;fillColor=#dae8fc;strokeColor=#6c8ebf;fontStyle=1" parent="1" vertex="1">
          <mxGeometry x="2200" y="372.5" width="90" height="40" as="geometry" />
        </mxCell>
        <mxCell id="vwZq9Y9TnrJTcbUkJgKD-69" value="&lt;strong&gt;movie_id&lt;/strong&gt; (FK)" style="ellipse;whiteSpace=wrap;html=1;fillColor=#dae8fc;strokeColor=#6c8ebf;fontStyle=1;" parent="1" vertex="1">
          <mxGeometry x="2383.75" y="372.5" width="90" height="40" as="geometry" />
        </mxCell>
        <mxCell id="vwZq9Y9TnrJTcbUkJgKD-70" style="edgeStyle=none;curved=0;rounded=0;orthogonalLoop=1;jettySize=auto;html=1;fontSize=12;startSize=8;endSize=8;strokeColor=default;endArrow=none;endFill=0;startArrow=none;startFill=0;strokeWidth=1;" parent="1" source="vwZq9Y9TnrJTcbUkJgKD-66" target="vwZq9Y9TnrJTcbUkJgKD-68" edge="1">
          <mxGeometry relative="1" as="geometry" />
        </mxCell>
        <mxCell id="vwZq9Y9TnrJTcbUkJgKD-72" style="edgeStyle=none;curved=0;rounded=0;orthogonalLoop=1;jettySize=auto;html=1;fontSize=12;startSize=8;endSize=8;strokeColor=default;endArrow=none;endFill=0;startArrow=none;startFill=0;strokeWidth=1;" parent="1" source="vwZq9Y9TnrJTcbUkJgKD-80" target="vwZq9Y9TnrJTcbUkJgKD-85" edge="1">
          <mxGeometry relative="1" as="geometry" />
        </mxCell>
        <mxCell id="vwZq9Y9TnrJTcbUkJgKD-74" style="edgeStyle=none;curved=0;rounded=0;orthogonalLoop=1;jettySize=auto;html=1;fontSize=12;startSize=8;endSize=8;strokeColor=default;endArrow=none;endFill=0;startArrow=none;startFill=0;strokeWidth=1;" parent="1" source="vwZq9Y9TnrJTcbUkJgKD-80" target="vwZq9Y9TnrJTcbUkJgKD-82" edge="1">
          <mxGeometry relative="1" as="geometry" />
        </mxCell>
        <mxCell id="vwZq9Y9TnrJTcbUkJgKD-75" style="edgeStyle=none;curved=0;rounded=0;orthogonalLoop=1;jettySize=auto;html=1;fontSize=12;startSize=8;endSize=8;strokeColor=default;endArrow=none;endFill=0;startArrow=none;startFill=0;strokeWidth=1;" parent="1" source="vwZq9Y9TnrJTcbUkJgKD-80" target="vwZq9Y9TnrJTcbUkJgKD-84" edge="1">
          <mxGeometry relative="1" as="geometry" />
        </mxCell>
        <mxCell id="vwZq9Y9TnrJTcbUkJgKD-76" value="" style="edgeStyle=none;curved=1;rounded=0;orthogonalLoop=1;jettySize=auto;html=1;fontSize=12;startSize=8;endSize=8;endArrow=none;endFill=0;startArrow=none;startFill=0;" parent="1" source="vwZq9Y9TnrJTcbUkJgKD-80" target="vwZq9Y9TnrJTcbUkJgKD-87" edge="1">
          <mxGeometry relative="1" as="geometry" />
        </mxCell>
        <mxCell id="vwZq9Y9TnrJTcbUkJgKD-77" value="" style="edgeStyle=none;curved=1;rounded=0;orthogonalLoop=1;jettySize=auto;html=1;fontSize=12;startSize=8;endSize=8;targetPerimeterSpacing=-1;startArrow=none;startFill=0;endArrow=none;endFill=0;" parent="1" source="vwZq9Y9TnrJTcbUkJgKD-80" target="vwZq9Y9TnrJTcbUkJgKD-88" edge="1">
          <mxGeometry relative="1" as="geometry" />
        </mxCell>
        <mxCell id="a7wCdL0YuHwY793Ek5zo-3" style="edgeStyle=orthogonalEdgeStyle;rounded=0;orthogonalLoop=1;jettySize=auto;html=1;endArrow=none;endFill=0;" parent="1" source="vwZq9Y9TnrJTcbUkJgKD-80" target="vwZq9Y9TnrJTcbUkJgKD-94" edge="1">
          <mxGeometry relative="1" as="geometry">
            <Array as="points" />
          </mxGeometry>
        </mxCell>
        <mxCell id="a7wCdL0YuHwY793Ek5zo-6" value="1" style="edgeLabel;html=1;align=center;verticalAlign=middle;resizable=0;points=[];" parent="a7wCdL0YuHwY793Ek5zo-3" vertex="1" connectable="0">
          <mxGeometry x="-0.8719" y="-1" relative="1" as="geometry">
            <mxPoint as="offset" />
          </mxGeometry>
        </mxCell>
        <mxCell id="vwZq9Y9TnrJTcbUkJgKD-80" value="Rental" style="whiteSpace=wrap;html=1;strokeColor=default;" parent="1" vertex="1">
          <mxGeometry x="1365" y="150" width="120" height="40" as="geometry" />
        </mxCell>
        <mxCell id="vwZq9Y9TnrJTcbUkJgKD-83" value="&lt;strong&gt;user_id&lt;/strong&gt; (FK)" style="ellipse;whiteSpace=wrap;html=1;fillColor=#dae8fc;strokeColor=#6c8ebf;fontStyle=1" parent="1" vertex="1">
          <mxGeometry x="1193.75" y="120" width="90" height="40" as="geometry" />
        </mxCell>
        <mxCell id="vwZq9Y9TnrJTcbUkJgKD-84" value="&lt;strong&gt;movie_id&lt;/strong&gt; (FK)" style="ellipse;whiteSpace=wrap;html=1;fillColor=#dae8fc;strokeColor=#6c8ebf;fontStyle=1" parent="1" vertex="1">
          <mxGeometry x="1213.75" y="181" width="90" height="40" as="geometry" />
        </mxCell>
        <mxCell id="vwZq9Y9TnrJTcbUkJgKD-85" value="&lt;strong&gt;rental_id&lt;/strong&gt; (PK)" style="ellipse;whiteSpace=wrap;html=1;fillColor=#f8cecc;strokeColor=#b85450;fontStyle=5" parent="1" vertex="1">
          <mxGeometry x="1542.5" y="181" width="103.75" height="41" as="geometry" />
        </mxCell>
        <mxCell id="vwZq9Y9TnrJTcbUkJgKD-86" style="edgeStyle=none;curved=0;rounded=0;orthogonalLoop=1;jettySize=auto;html=1;fontSize=12;startSize=8;endSize=8;strokeColor=default;endArrow=none;endFill=0;startArrow=none;startFill=0;strokeWidth=1;" parent="1" source="vwZq9Y9TnrJTcbUkJgKD-80" target="vwZq9Y9TnrJTcbUkJgKD-83" edge="1">
          <mxGeometry relative="1" as="geometry" />
        </mxCell>
        <mxCell id="vwZq9Y9TnrJTcbUkJgKD-87" value="rental_date" style="ellipse;whiteSpace=wrap;html=1;" parent="1" vertex="1">
          <mxGeometry x="1275" y="238" width="90" height="40" as="geometry" />
        </mxCell>
        <mxCell id="vwZq9Y9TnrJTcbUkJgKD-88" value="late_fee" style="ellipse;whiteSpace=wrap;html=1;" parent="1" vertex="1">
          <mxGeometry x="1382.5" y="257.5" width="85" height="35" as="geometry" />
        </mxCell>
        <mxCell id="vwZq9Y9TnrJTcbUkJgKD-92" style="edgeStyle=orthogonalEdgeStyle;rounded=0;orthogonalLoop=1;jettySize=auto;html=1;fontSize=12;startSize=8;endSize=8;endArrow=none;endFill=0;exitX=0.5;exitY=1;exitDx=0;exitDy=0;" parent="1" source="vwZq9Y9TnrJTcbUkJgKD-94" target="vwZq9Y9TnrJTcbUkJgKD-27" edge="1">
          <mxGeometry relative="1" as="geometry">
            <Array as="points" />
          </mxGeometry>
        </mxCell>
        <mxCell id="MY8bs-RQkO05MQZ8Xh-i-11" value="1" style="edgeLabel;html=1;align=center;verticalAlign=middle;resizable=0;points=[];" parent="vwZq9Y9TnrJTcbUkJgKD-92" vertex="1" connectable="0">
          <mxGeometry x="0.486" y="1" relative="1" as="geometry">
            <mxPoint x="-1" y="62" as="offset" />
          </mxGeometry>
        </mxCell>
        <mxCell id="vwZq9Y9TnrJTcbUkJgKD-94" value="Choose" style="rhombus;whiteSpace=wrap;html=1;" parent="1" vertex="1">
          <mxGeometry x="1845" y="142.5" width="150" height="55" as="geometry" />
        </mxCell>
        <mxCell id="vwZq9Y9TnrJTcbUkJgKD-95" style="edgeStyle=none;curved=1;rounded=0;orthogonalLoop=1;jettySize=auto;html=1;entryX=0.453;entryY=-0.033;entryDx=0;entryDy=0;entryPerimeter=0;fontSize=12;startSize=8;endSize=8;endArrow=none;endFill=0;" parent="1" source="vwZq9Y9TnrJTcbUkJgKD-58" target="vwZq9Y9TnrJTcbUkJgKD-66" edge="1">
          <mxGeometry relative="1" as="geometry" />
        </mxCell>
        <mxCell id="vwZq9Y9TnrJTcbUkJgKD-96" value="1" style="edgeLabel;html=1;align=center;verticalAlign=middle;resizable=0;points=[];fontSize=12;" parent="vwZq9Y9TnrJTcbUkJgKD-95" vertex="1" connectable="0">
          <mxGeometry x="-0.8559" y="2" relative="1" as="geometry">
            <mxPoint as="offset" />
          </mxGeometry>
        </mxCell>
        <mxCell id="vwZq9Y9TnrJTcbUkJgKD-97" value="m" style="edgeLabel;html=1;align=center;verticalAlign=middle;resizable=0;points=[];fontSize=12;" parent="vwZq9Y9TnrJTcbUkJgKD-95" vertex="1" connectable="0">
          <mxGeometry x="0.8076" y="-1" relative="1" as="geometry">
            <mxPoint as="offset" />
          </mxGeometry>
        </mxCell>
        <mxCell id="HvHesekv2nDa_G__FXom-3" value="" style="endArrow=none;dashed=1;html=1;rounded=0;exitX=0.051;exitY=0.718;exitDx=0;exitDy=0;exitPerimeter=0;entryX=0.919;entryY=0.73;entryDx=0;entryDy=0;entryPerimeter=0;" parent="1" source="vwZq9Y9TnrJTcbUkJgKD-69" target="vwZq9Y9TnrJTcbUkJgKD-69" edge="1">
          <mxGeometry width="50" height="50" relative="1" as="geometry">
            <mxPoint x="2148.75" y="390" as="sourcePoint" />
            <mxPoint x="2198.75" y="340" as="targetPoint" />
          </mxGeometry>
        </mxCell>
        <mxCell id="HvHesekv2nDa_G__FXom-4" value="" style="endArrow=none;dashed=1;html=1;rounded=0;exitX=0.041;exitY=0.67;exitDx=0;exitDy=0;exitPerimeter=0;entryX=0.961;entryY=0.706;entryDx=0;entryDy=0;entryPerimeter=0;" parent="1" source="vwZq9Y9TnrJTcbUkJgKD-68" target="vwZq9Y9TnrJTcbUkJgKD-68" edge="1">
          <mxGeometry width="50" height="50" relative="1" as="geometry">
            <mxPoint x="2038.75" y="409.76" as="sourcePoint" />
            <mxPoint x="2116.75" y="409.76" as="targetPoint" />
          </mxGeometry>
        </mxCell>
        <mxCell id="HvHesekv2nDa_G__FXom-6" value="" style="ellipse;whiteSpace=wrap;html=1;gradientColor=none;fillStyle=dashed;fillColor=none;" parent="1" vertex="1">
          <mxGeometry x="1686.25" y="472.5" width="102.5" height="50" as="geometry" />
        </mxCell>
        <mxCell id="HvHesekv2nDa_G__FXom-8" value="" style="ellipse;whiteSpace=wrap;html=1;gradientColor=none;fillStyle=dashed;fillColor=none;" parent="1" vertex="1">
          <mxGeometry x="1728.75" y="552.5" width="102.5" height="50" as="geometry" />
        </mxCell>
        <mxCell id="HvHesekv2nDa_G__FXom-17" value="" style="rounded=0;orthogonalLoop=1;jettySize=auto;html=1;endArrow=none;endFill=0;" parent="1" target="HvHesekv2nDa_G__FXom-16" edge="1">
          <mxGeometry relative="1" as="geometry">
            <mxPoint x="1567.5" y="833.5" as="sourcePoint" />
          </mxGeometry>
        </mxCell>
        <mxCell id="HvHesekv2nDa_G__FXom-13" value="Review" style="rounded=0;whiteSpace=wrap;html=1;" parent="1" vertex="1">
          <mxGeometry x="1542.5" y="835.37" width="100" height="31.25" as="geometry" />
        </mxCell>
        <mxCell id="HvHesekv2nDa_G__FXom-16" value="review_id(PK)" style="ellipse;whiteSpace=wrap;html=1;rounded=0;fontStyle=5;fillColor=#f8cecc;strokeColor=#b85450;" parent="1" vertex="1">
          <mxGeometry x="1453.75" y="756" width="100" height="37.5" as="geometry" />
        </mxCell>
        <mxCell id="HvHesekv2nDa_G__FXom-22" style="rounded=0;orthogonalLoop=1;jettySize=auto;html=1;endArrow=none;endFill=0;" parent="1" source="HvHesekv2nDa_G__FXom-18" target="HvHesekv2nDa_G__FXom-13" edge="1">
          <mxGeometry relative="1" as="geometry" />
        </mxCell>
        <mxCell id="HvHesekv2nDa_G__FXom-18" value="review_text" style="ellipse;whiteSpace=wrap;html=1;" parent="1" vertex="1">
          <mxGeometry x="1552.5" y="894.75" width="90" height="40" as="geometry" />
        </mxCell>
        <mxCell id="HvHesekv2nDa_G__FXom-19" value="review_date" style="ellipse;whiteSpace=wrap;html=1;" parent="1" vertex="1">
          <mxGeometry x="1417.5" y="871" width="90" height="40" as="geometry" />
        </mxCell>
        <mxCell id="HvHesekv2nDa_G__FXom-23" style="rounded=0;orthogonalLoop=1;jettySize=auto;html=1;endArrow=none;endFill=0;" parent="1" source="HvHesekv2nDa_G__FXom-20" target="HvHesekv2nDa_G__FXom-13" edge="1">
          <mxGeometry relative="1" as="geometry" />
        </mxCell>
        <mxCell id="HvHesekv2nDa_G__FXom-20" value="user_id(FK)" style="ellipse;whiteSpace=wrap;html=1;fillColor=#dae8fc;strokeColor=#6c8ebf;" parent="1" vertex="1">
          <mxGeometry x="1676.25" y="795.37" width="90" height="40" as="geometry" />
        </mxCell>
        <mxCell id="HvHesekv2nDa_G__FXom-21" style="rounded=0;orthogonalLoop=1;jettySize=auto;html=1;entryX=0.023;entryY=0.835;entryDx=0;entryDy=0;entryPerimeter=0;endArrow=none;endFill=0;" parent="1" source="HvHesekv2nDa_G__FXom-19" target="HvHesekv2nDa_G__FXom-13" edge="1">
          <mxGeometry relative="1" as="geometry">
            <mxPoint x="1497.5" y="954.75" as="sourcePoint" />
          </mxGeometry>
        </mxCell>
        <mxCell id="HvHesekv2nDa_G__FXom-25" style="rounded=0;orthogonalLoop=1;jettySize=auto;html=1;entryX=1;entryY=0.75;entryDx=0;entryDy=0;endArrow=none;endFill=0;" parent="1" source="HvHesekv2nDa_G__FXom-24" target="HvHesekv2nDa_G__FXom-13" edge="1">
          <mxGeometry relative="1" as="geometry">
            <mxPoint x="1687.855429283301" y="875.7362107885843" as="sourcePoint" />
          </mxGeometry>
        </mxCell>
        <mxCell id="HvHesekv2nDa_G__FXom-24" value="rating" style="ellipse;whiteSpace=wrap;html=1;" parent="1" vertex="1">
          <mxGeometry x="1682.5" y="871" width="90" height="40" as="geometry" />
        </mxCell>
        <mxCell id="HvHesekv2nDa_G__FXom-27" style="rounded=0;orthogonalLoop=1;jettySize=auto;html=1;endArrow=none;endFill=0;" parent="1" source="HvHesekv2nDa_G__FXom-26" target="HvHesekv2nDa_G__FXom-13" edge="1">
          <mxGeometry relative="1" as="geometry" />
        </mxCell>
        <mxCell id="HvHesekv2nDa_G__FXom-26" value="movie_id(FK)" style="ellipse;whiteSpace=wrap;html=1;fillColor=#dae8fc;strokeColor=#6c8ebf;" parent="1" vertex="1">
          <mxGeometry x="1610" y="748.75" width="90" height="40" as="geometry" />
        </mxCell>
        <mxCell id="nalIL6NrAGeNrtfmA-32-5" style="edgeStyle=orthogonalEdgeStyle;rounded=0;orthogonalLoop=1;jettySize=auto;html=1;fontSize=12;startSize=8;endSize=8;endArrow=none;endFill=0;" parent="1" source="nalIL6NrAGeNrtfmA-32-7" target="vwZq9Y9TnrJTcbUkJgKD-80" edge="1">
          <mxGeometry relative="1" as="geometry">
            <mxPoint x="1400.470360824742" y="412.5" as="sourcePoint" />
            <Array as="points">
              <mxPoint x="1154" y="170" />
            </Array>
          </mxGeometry>
        </mxCell>
        <mxCell id="a7wCdL0YuHwY793Ek5zo-5" value="m" style="edgeLabel;html=1;align=center;verticalAlign=middle;resizable=0;points=[];" parent="nalIL6NrAGeNrtfmA-32-5" vertex="1" connectable="0">
          <mxGeometry x="0.848" relative="1" as="geometry">
            <mxPoint x="-18" as="offset" />
          </mxGeometry>
        </mxCell>
        <mxCell id="nalIL6NrAGeNrtfmA-32-7" value="Re&lt;span style=&quot;background-color: initial;&quot;&gt;nt&lt;/span&gt;" style="rhombus;whiteSpace=wrap;html=1;" parent="1" vertex="1">
          <mxGeometry x="1113.75" y="292.5" width="80" height="80" as="geometry" />
        </mxCell>
        <mxCell id="vwZq9Y9TnrJTcbUkJgKD-82" value="return_date" style="ellipse;whiteSpace=wrap;html=1;" parent="1" vertex="1">
          <mxGeometry x="1443" y="70" width="90" height="40" as="geometry" />
        </mxCell>
        <mxCell id="MY8bs-RQkO05MQZ8Xh-i-2" value="write" style="rhombus;whiteSpace=wrap;html=1;" parent="1" vertex="1">
          <mxGeometry x="1113.75" y="810.99" width="80" height="80" as="geometry" />
        </mxCell>
        <mxCell id="MY8bs-RQkO05MQZ8Xh-i-3" value="" style="endArrow=none;html=1;rounded=0;" parent="1" source="vwZq9Y9TnrJTcbUkJgKD-8" target="MY8bs-RQkO05MQZ8Xh-i-2" edge="1">
          <mxGeometry width="50" height="50" relative="1" as="geometry">
            <mxPoint x="1440" y="570" as="sourcePoint" />
            <mxPoint x="1490" y="520" as="targetPoint" />
          </mxGeometry>
        </mxCell>
        <mxCell id="7WjgQxB0nHzjTj8IJ9Qh-5" value="1" style="edgeLabel;html=1;align=center;verticalAlign=middle;resizable=0;points=[];" parent="MY8bs-RQkO05MQZ8Xh-i-3" vertex="1" connectable="0">
          <mxGeometry x="-0.8851" relative="1" as="geometry">
            <mxPoint as="offset" />
          </mxGeometry>
        </mxCell>
        <mxCell id="MY8bs-RQkO05MQZ8Xh-i-4" value="" style="endArrow=none;html=1;rounded=0;edgeStyle=orthogonalEdgeStyle;" parent="1" source="HvHesekv2nDa_G__FXom-13" target="MY8bs-RQkO05MQZ8Xh-i-2" edge="1">
          <mxGeometry width="50" height="50" relative="1" as="geometry">
            <mxPoint x="1440" y="531" as="sourcePoint" />
            <mxPoint x="1490" y="481" as="targetPoint" />
          </mxGeometry>
        </mxCell>
        <mxCell id="7WjgQxB0nHzjTj8IJ9Qh-4" value="m" style="edgeLabel;html=1;align=center;verticalAlign=middle;resizable=0;points=[];" parent="MY8bs-RQkO05MQZ8Xh-i-4" vertex="1" connectable="0">
          <mxGeometry x="-0.8971" relative="1" as="geometry">
            <mxPoint as="offset" />
          </mxGeometry>
        </mxCell>
        <mxCell id="MY8bs-RQkO05MQZ8Xh-i-7" value="" style="endArrow=none;html=1;rounded=0;" parent="1" source="vwZq9Y9TnrJTcbUkJgKD-8" target="nalIL6NrAGeNrtfmA-32-7" edge="1">
          <mxGeometry width="50" height="50" relative="1" as="geometry">
            <mxPoint x="1270" y="540" as="sourcePoint" />
            <mxPoint x="1320" y="490" as="targetPoint" />
          </mxGeometry>
        </mxCell>
        <mxCell id="MY8bs-RQkO05MQZ8Xh-i-8" value="1" style="edgeLabel;html=1;align=center;verticalAlign=middle;resizable=0;points=[];" parent="MY8bs-RQkO05MQZ8Xh-i-7" vertex="1" connectable="0">
          <mxGeometry x="-0.6733" relative="1" as="geometry">
            <mxPoint as="offset" />
          </mxGeometry>
        </mxCell>
        <mxCell id="MY8bs-RQkO05MQZ8Xh-i-9" value="" style="endArrow=none;dashed=1;html=1;rounded=0;exitX=0.051;exitY=0.718;exitDx=0;exitDy=0;exitPerimeter=0;entryX=0.919;entryY=0.73;entryDx=0;entryDy=0;entryPerimeter=0;" parent="1" edge="1">
          <mxGeometry width="50" height="50" relative="1" as="geometry">
            <mxPoint x="2051" y="850" as="sourcePoint" />
            <mxPoint x="2129" y="851" as="targetPoint" />
          </mxGeometry>
        </mxCell>
        <mxCell id="MY8bs-RQkO05MQZ8Xh-i-10" value="" style="endArrow=none;dashed=1;html=1;rounded=0;exitX=0.051;exitY=0.718;exitDx=0;exitDy=0;exitPerimeter=0;entryX=0.919;entryY=0.73;entryDx=0;entryDy=0;entryPerimeter=0;" parent="1" edge="1">
          <mxGeometry width="50" height="50" relative="1" as="geometry">
            <mxPoint x="2051" y="703.75" as="sourcePoint" />
            <mxPoint x="2129" y="704.75" as="targetPoint" />
          </mxGeometry>
        </mxCell>
        <mxCell id="MY8bs-RQkO05MQZ8Xh-i-12" value="For" style="rhombus;whiteSpace=wrap;html=1;" parent="1" vertex="1">
          <mxGeometry x="1545" y="530" width="97.5" height="50" as="geometry" />
        </mxCell>
        <mxCell id="MY8bs-RQkO05MQZ8Xh-i-13" value="" style="endArrow=none;html=1;rounded=0;edgeStyle=orthogonalEdgeStyle;" parent="1" source="MY8bs-RQkO05MQZ8Xh-i-12" target="vwZq9Y9TnrJTcbUkJgKD-27" edge="1">
          <mxGeometry width="50" height="50" relative="1" as="geometry">
            <mxPoint x="1740" y="640" as="sourcePoint" />
            <mxPoint x="1790" y="590" as="targetPoint" />
            <Array as="points">
              <mxPoint x="1593" y="540" />
            </Array>
          </mxGeometry>
        </mxCell>
        <mxCell id="7WjgQxB0nHzjTj8IJ9Qh-3" value="1" style="edgeLabel;html=1;align=center;verticalAlign=middle;resizable=0;points=[];" parent="MY8bs-RQkO05MQZ8Xh-i-13" vertex="1" connectable="0">
          <mxGeometry x="0.8896" relative="1" as="geometry">
            <mxPoint as="offset" />
          </mxGeometry>
        </mxCell>
        <mxCell id="MY8bs-RQkO05MQZ8Xh-i-14" value="" style="endArrow=none;html=1;rounded=0;" parent="1" source="HvHesekv2nDa_G__FXom-13" target="MY8bs-RQkO05MQZ8Xh-i-12" edge="1">
          <mxGeometry width="50" height="50" relative="1" as="geometry">
            <mxPoint x="1740" y="700" as="sourcePoint" />
            <mxPoint x="1790" y="650" as="targetPoint" />
          </mxGeometry>
        </mxCell>
        <mxCell id="7WjgQxB0nHzjTj8IJ9Qh-2" value="m" style="edgeLabel;html=1;align=center;verticalAlign=middle;resizable=0;points=[];" parent="MY8bs-RQkO05MQZ8Xh-i-14" vertex="1" connectable="0">
          <mxGeometry x="-0.8261" y="1" relative="1" as="geometry">
            <mxPoint x="1" as="offset" />
          </mxGeometry>
        </mxCell>
        <mxCell id="daBbPbXw10f9j0ik71Eo-1" value="rank" style="ellipse;whiteSpace=wrap;html=1;" vertex="1" parent="1">
          <mxGeometry x="2205" y="85" width="65" height="35" as="geometry" />
        </mxCell>
        <mxCell id="daBbPbXw10f9j0ik71Eo-3" value="description" style="ellipse;whiteSpace=wrap;html=1;" vertex="1" parent="1">
          <mxGeometry x="2370" y="85" width="80" height="35" as="geometry" />
        </mxCell>
        <mxCell id="daBbPbXw10f9j0ik71Eo-4" value="role" style="ellipse;whiteSpace=wrap;html=1;" vertex="1" parent="1">
          <mxGeometry x="2410" y="292.5" width="80" height="40" as="geometry" />
        </mxCell>
        <mxCell id="daBbPbXw10f9j0ik71Eo-5" value="" style="endArrow=none;html=1;rounded=0;" edge="1" parent="1" source="daBbPbXw10f9j0ik71Eo-1" target="vwZq9Y9TnrJTcbUkJgKD-58">
          <mxGeometry width="50" height="50" relative="1" as="geometry">
            <mxPoint x="2350" y="280" as="sourcePoint" />
            <mxPoint x="2400" y="230" as="targetPoint" />
          </mxGeometry>
        </mxCell>
        <mxCell id="daBbPbXw10f9j0ik71Eo-6" value="" style="endArrow=none;html=1;rounded=0;" edge="1" parent="1" source="vwZq9Y9TnrJTcbUkJgKD-58" target="daBbPbXw10f9j0ik71Eo-3">
          <mxGeometry width="50" height="50" relative="1" as="geometry">
            <mxPoint x="2274.75" y="67" as="sourcePoint" />
            <mxPoint x="2333.75" y="120" as="targetPoint" />
          </mxGeometry>
        </mxCell>
        <mxCell id="daBbPbXw10f9j0ik71Eo-7" value="" style="endArrow=none;html=1;rounded=0;" edge="1" parent="1" source="vwZq9Y9TnrJTcbUkJgKD-66" target="daBbPbXw10f9j0ik71Eo-4">
          <mxGeometry width="50" height="50" relative="1" as="geometry">
            <mxPoint x="2348" y="150" as="sourcePoint" />
            <mxPoint x="2379" y="106" as="targetPoint" />
          </mxGeometry>
        </mxCell>
        <mxCell id="daBbPbXw10f9j0ik71Eo-9" style="rounded=0;orthogonalLoop=1;jettySize=auto;html=1;fontSize=12;startSize=8;endSize=8;strokeColor=default;endArrow=none;endFill=0;startArrow=none;startFill=0;strokeWidth=1;" edge="1" parent="1" source="daBbPbXw10f9j0ik71Eo-14" target="daBbPbXw10f9j0ik71Eo-21">
          <mxGeometry relative="1" as="geometry" />
        </mxCell>
        <mxCell id="daBbPbXw10f9j0ik71Eo-10" style="rounded=0;orthogonalLoop=1;jettySize=auto;html=1;fontSize=12;startSize=8;endSize=8;strokeColor=default;endArrow=none;endFill=0;startArrow=none;startFill=0;strokeWidth=1;" edge="1" parent="1" source="daBbPbXw10f9j0ik71Eo-14" target="daBbPbXw10f9j0ik71Eo-16">
          <mxGeometry relative="1" as="geometry">
            <mxPoint x="489.83344827201563" y="627.1912075586149" as="targetPoint" />
          </mxGeometry>
        </mxCell>
        <mxCell id="daBbPbXw10f9j0ik71Eo-12" style="rounded=0;orthogonalLoop=1;jettySize=auto;html=1;fontSize=12;startSize=8;endSize=8;strokeColor=default;endArrow=none;endFill=0;startArrow=none;startFill=0;strokeWidth=1;" edge="1" parent="1" source="daBbPbXw10f9j0ik71Eo-14" target="daBbPbXw10f9j0ik71Eo-22">
          <mxGeometry relative="1" as="geometry" />
        </mxCell>
        <mxCell id="daBbPbXw10f9j0ik71Eo-14" value="Profiles" style="whiteSpace=wrap;html=1;strokeColor=default;" vertex="1" parent="1">
          <mxGeometry x="670.75" y="514" width="120" height="40" as="geometry" />
        </mxCell>
        <mxCell id="daBbPbXw10f9j0ik71Eo-15" value="address" style="ellipse;whiteSpace=wrap;html=1;" vertex="1" parent="1">
          <mxGeometry x="572" y="455" width="90" height="40" as="geometry" />
        </mxCell>
        <mxCell id="daBbPbXw10f9j0ik71Eo-16" value="full_name" style="ellipse;whiteSpace=wrap;html=1;" vertex="1" parent="1">
          <mxGeometry x="546" y="517.5" width="90" height="40" as="geometry" />
        </mxCell>
        <mxCell id="daBbPbXw10f9j0ik71Eo-21" value="&lt;strong&gt;profile_id&lt;/strong&gt; (PK)" style="ellipse;whiteSpace=wrap;html=1;fillColor=#f8cecc;strokeColor=#b85450;fontStyle=5" vertex="1" parent="1">
          <mxGeometry x="700.75" y="432.5" width="90" height="40" as="geometry" />
        </mxCell>
        <mxCell id="daBbPbXw10f9j0ik71Eo-22" value="phone_number" style="ellipse;whiteSpace=wrap;html=1;" vertex="1" parent="1">
          <mxGeometry x="685.75" y="612.5" width="90" height="40" as="geometry" />
        </mxCell>
        <mxCell id="daBbPbXw10f9j0ik71Eo-24" style="rounded=0;orthogonalLoop=1;jettySize=auto;html=1;fontSize=12;startSize=8;endSize=8;strokeColor=default;endArrow=none;endFill=0;startArrow=none;startFill=0;strokeWidth=1;" edge="1" parent="1" source="daBbPbXw10f9j0ik71Eo-14" target="daBbPbXw10f9j0ik71Eo-15">
          <mxGeometry relative="1" as="geometry" />
        </mxCell>
        <mxCell id="daBbPbXw10f9j0ik71Eo-28" value="user_id(FK)" style="ellipse;whiteSpace=wrap;html=1;fillColor=#dae8fc;strokeColor=#6c8ebf;fontStyle=5" vertex="1" parent="1">
          <mxGeometry x="572" y="580" width="90" height="40" as="geometry" />
        </mxCell>
        <mxCell id="daBbPbXw10f9j0ik71Eo-29" style="rounded=0;orthogonalLoop=1;jettySize=auto;html=1;fontSize=12;startSize=8;endSize=8;strokeColor=default;endArrow=none;endFill=0;startArrow=none;startFill=0;strokeWidth=1;" edge="1" parent="1" source="daBbPbXw10f9j0ik71Eo-28" target="daBbPbXw10f9j0ik71Eo-14">
          <mxGeometry relative="1" as="geometry">
            <mxPoint x="752" y="524" as="sourcePoint" />
            <mxPoint x="772" y="487" as="targetPoint" />
          </mxGeometry>
        </mxCell>
        <mxCell id="daBbPbXw10f9j0ik71Eo-30" value="" style="endArrow=none;html=1;rounded=0;" edge="1" parent="1" source="daBbPbXw10f9j0ik71Eo-14" target="vwZq9Y9TnrJTcbUkJgKD-8">
          <mxGeometry width="50" height="50" relative="1" as="geometry">
            <mxPoint x="770" y="580" as="sourcePoint" />
            <mxPoint x="820" y="530" as="targetPoint" />
          </mxGeometry>
        </mxCell>
        <mxCell id="daBbPbXw10f9j0ik71Eo-31" value="1" style="edgeLabel;html=1;align=center;verticalAlign=middle;resizable=0;points=[];" vertex="1" connectable="0" parent="daBbPbXw10f9j0ik71Eo-30">
          <mxGeometry x="-0.8996" y="2" relative="1" as="geometry">
            <mxPoint as="offset" />
          </mxGeometry>
        </mxCell>
        <mxCell id="daBbPbXw10f9j0ik71Eo-32" value="1" style="edgeLabel;html=1;align=center;verticalAlign=middle;resizable=0;points=[];" vertex="1" connectable="0" parent="daBbPbXw10f9j0ik71Eo-30">
          <mxGeometry x="0.8625" y="-2" relative="1" as="geometry">
            <mxPoint y="-3" as="offset" />
          </mxGeometry>
        </mxCell>
        <mxCell id="daBbPbXw10f9j0ik71Eo-33" value="address" style="ellipse;whiteSpace=wrap;html=1;" vertex="1" parent="1">
          <mxGeometry x="806" y="557.5" width="90" height="40" as="geometry" />
        </mxCell>
        <mxCell id="daBbPbXw10f9j0ik71Eo-34" style="rounded=0;orthogonalLoop=1;jettySize=auto;html=1;fontSize=12;startSize=8;endSize=8;strokeColor=default;endArrow=none;endFill=0;startArrow=none;startFill=0;strokeWidth=1;" edge="1" parent="1" source="daBbPbXw10f9j0ik71Eo-14" target="daBbPbXw10f9j0ik71Eo-33">
          <mxGeometry relative="1" as="geometry">
            <mxPoint x="741" y="567" as="sourcePoint" />
            <mxPoint x="732" y="626" as="targetPoint" />
          </mxGeometry>
        </mxCell>
        <mxCell id="daBbPbXw10f9j0ik71Eo-36" value="status" style="ellipse;whiteSpace=wrap;html=1;" vertex="1" parent="1">
          <mxGeometry x="1193.75" y="602.5" width="90" height="40" as="geometry" />
        </mxCell>
        <mxCell id="daBbPbXw10f9j0ik71Eo-37" value="" style="endArrow=none;html=1;rounded=0;" edge="1" parent="1" source="daBbPbXw10f9j0ik71Eo-36" target="vwZq9Y9TnrJTcbUkJgKD-8">
          <mxGeometry width="50" height="50" relative="1" as="geometry">
            <mxPoint x="1170" y="570" as="sourcePoint" />
            <mxPoint x="1220" y="520" as="targetPoint" />
          </mxGeometry>
        </mxCell>
        <mxCell id="daBbPbXw10f9j0ik71Eo-39" style="edgeStyle=none;curved=0;rounded=0;orthogonalLoop=1;jettySize=auto;html=1;fontSize=12;startSize=8;endSize=8;strokeColor=default;endArrow=none;endFill=0;startArrow=none;startFill=0;strokeWidth=1;" edge="1" parent="1" source="daBbPbXw10f9j0ik71Eo-46" target="daBbPbXw10f9j0ik71Eo-50">
          <mxGeometry relative="1" as="geometry" />
        </mxCell>
        <mxCell id="daBbPbXw10f9j0ik71Eo-46" value="Payments" style="whiteSpace=wrap;html=1;strokeColor=default;" vertex="1" parent="1">
          <mxGeometry x="1365" y="-121" width="120" height="40" as="geometry" />
        </mxCell>
        <mxCell id="daBbPbXw10f9j0ik71Eo-50" value="payment_id&amp;nbsp;(PK)" style="ellipse;whiteSpace=wrap;html=1;fillColor=#f8cecc;strokeColor=#b85450;fontStyle=5" vertex="1" parent="1">
          <mxGeometry x="1369.25" y="-208" width="111.5" height="48" as="geometry" />
        </mxCell>
        <mxCell id="daBbPbXw10f9j0ik71Eo-58" value="rental_id(FK)" style="ellipse;whiteSpace=wrap;html=1;fillColor=#dae8fc;strokeColor=#6c8ebf;" vertex="1" parent="1">
          <mxGeometry x="1507.5" y="-81" width="108.25" height="55" as="geometry" />
        </mxCell>
        <mxCell id="daBbPbXw10f9j0ik71Eo-59" value="" style="endArrow=none;html=1;rounded=0;" edge="1" parent="1" source="daBbPbXw10f9j0ik71Eo-46" target="daBbPbXw10f9j0ik71Eo-58">
          <mxGeometry width="50" height="50" relative="1" as="geometry">
            <mxPoint x="1413.25" y="-140" as="sourcePoint" />
            <mxPoint x="1463.25" y="-190" as="targetPoint" />
          </mxGeometry>
        </mxCell>
        <mxCell id="daBbPbXw10f9j0ik71Eo-60" style="edgeStyle=none;curved=0;rounded=0;orthogonalLoop=1;jettySize=auto;html=1;fontSize=12;startSize=8;endSize=8;strokeColor=default;endArrow=none;endFill=0;startArrow=none;startFill=0;strokeWidth=1;" edge="1" parent="1" target="daBbPbXw10f9j0ik71Eo-61" source="vwZq9Y9TnrJTcbUkJgKD-80">
          <mxGeometry relative="1" as="geometry">
            <mxPoint x="1388.6014202438064" y="104" as="sourcePoint" />
          </mxGeometry>
        </mxCell>
        <mxCell id="daBbPbXw10f9j0ik71Eo-61" value="Staff_ID" style="ellipse;whiteSpace=wrap;html=1;" vertex="1" parent="1">
          <mxGeometry x="1533" y="110" width="90" height="40" as="geometry" />
        </mxCell>
        <mxCell id="daBbPbXw10f9j0ik71Eo-64" value="due_date" style="ellipse;whiteSpace=wrap;html=1;" vertex="1" parent="1">
          <mxGeometry x="1334" y="67.5" width="85" height="35" as="geometry" />
        </mxCell>
        <mxCell id="daBbPbXw10f9j0ik71Eo-65" style="edgeStyle=none;curved=0;rounded=0;orthogonalLoop=1;jettySize=auto;html=1;fontSize=12;startSize=8;endSize=8;strokeColor=default;endArrow=none;endFill=0;startArrow=none;startFill=0;strokeWidth=1;" edge="1" parent="1" source="vwZq9Y9TnrJTcbUkJgKD-80" target="daBbPbXw10f9j0ik71Eo-64">
          <mxGeometry relative="1" as="geometry">
            <mxPoint x="1463" y="163" as="sourcePoint" />
            <mxPoint x="1506" y="129" as="targetPoint" />
          </mxGeometry>
        </mxCell>
        <mxCell id="daBbPbXw10f9j0ik71Eo-66" value="" style="edgeStyle=none;curved=1;rounded=0;orthogonalLoop=1;jettySize=auto;html=1;fontSize=12;startSize=8;endSize=8;targetPerimeterSpacing=-1;startArrow=none;startFill=0;endArrow=none;endFill=0;" edge="1" parent="1" source="vwZq9Y9TnrJTcbUkJgKD-80" target="daBbPbXw10f9j0ik71Eo-67">
          <mxGeometry relative="1" as="geometry">
            <mxPoint x="1438" y="203" as="sourcePoint" />
            <mxPoint x="1495" y="234" as="targetPoint" />
          </mxGeometry>
        </mxCell>
        <mxCell id="daBbPbXw10f9j0ik71Eo-67" value="total_amount" style="ellipse;whiteSpace=wrap;html=1;" vertex="1" parent="1">
          <mxGeometry x="1496" y="243" width="85" height="35" as="geometry" />
        </mxCell>
        <mxCell id="daBbPbXw10f9j0ik71Eo-68" value="" style="endArrow=none;html=1;rounded=0;" edge="1" parent="1" source="vwZq9Y9TnrJTcbUkJgKD-80" target="daBbPbXw10f9j0ik71Eo-46">
          <mxGeometry width="50" height="50" relative="1" as="geometry">
            <mxPoint x="1534" y="50" as="sourcePoint" />
            <mxPoint x="1584" as="targetPoint" />
          </mxGeometry>
        </mxCell>
        <mxCell id="daBbPbXw10f9j0ik71Eo-75" value="1" style="edgeLabel;html=1;align=center;verticalAlign=middle;resizable=0;points=[];" vertex="1" connectable="0" parent="daBbPbXw10f9j0ik71Eo-68">
          <mxGeometry x="-0.8569" y="-1" relative="1" as="geometry">
            <mxPoint as="offset" />
          </mxGeometry>
        </mxCell>
        <mxCell id="daBbPbXw10f9j0ik71Eo-76" value="1" style="edgeLabel;html=1;align=center;verticalAlign=middle;resizable=0;points=[];" vertex="1" connectable="0" parent="daBbPbXw10f9j0ik71Eo-68">
          <mxGeometry x="0.8953" y="2" relative="1" as="geometry">
            <mxPoint as="offset" />
          </mxGeometry>
        </mxCell>
        <mxCell id="daBbPbXw10f9j0ik71Eo-69" value="Credit" style="ellipse;whiteSpace=wrap;html=1;" vertex="1" parent="1">
          <mxGeometry x="806" y="467.5" width="90" height="40" as="geometry" />
        </mxCell>
        <mxCell id="daBbPbXw10f9j0ik71Eo-70" style="rounded=0;orthogonalLoop=1;jettySize=auto;html=1;fontSize=12;startSize=8;endSize=8;strokeColor=default;endArrow=none;endFill=0;startArrow=none;startFill=0;strokeWidth=1;" edge="1" parent="1" target="daBbPbXw10f9j0ik71Eo-69" source="daBbPbXw10f9j0ik71Eo-14">
          <mxGeometry relative="1" as="geometry">
            <mxPoint x="796" y="451.5" as="sourcePoint" />
            <mxPoint x="742" y="523.5" as="targetPoint" />
          </mxGeometry>
        </mxCell>
        <mxCell id="daBbPbXw10f9j0ik71Eo-71" value="payment_methods" style="ellipse;whiteSpace=wrap;html=1;" vertex="1" parent="1">
          <mxGeometry x="1230" y="-78" width="104" height="52" as="geometry" />
        </mxCell>
        <mxCell id="daBbPbXw10f9j0ik71Eo-72" value="" style="endArrow=none;html=1;rounded=0;" edge="1" parent="1" source="daBbPbXw10f9j0ik71Eo-71" target="daBbPbXw10f9j0ik71Eo-46">
          <mxGeometry width="50" height="50" relative="1" as="geometry">
            <mxPoint x="1391" y="-67" as="sourcePoint" />
            <mxPoint x="1441" y="-117" as="targetPoint" />
          </mxGeometry>
        </mxCell>
        <mxCell id="daBbPbXw10f9j0ik71Eo-73" value="status" style="ellipse;whiteSpace=wrap;html=1;" vertex="1" parent="1">
          <mxGeometry x="1237" y="70" width="90" height="40" as="geometry" />
        </mxCell>
        <mxCell id="daBbPbXw10f9j0ik71Eo-74" value="" style="endArrow=none;html=1;rounded=0;" edge="1" parent="1" source="daBbPbXw10f9j0ik71Eo-73" target="vwZq9Y9TnrJTcbUkJgKD-80">
          <mxGeometry width="50" height="50" relative="1" as="geometry">
            <mxPoint x="1371" y="136" as="sourcePoint" />
            <mxPoint x="1398.3333333333335" y="120" as="targetPoint" />
          </mxGeometry>
        </mxCell>
      </root>
    </mxGraphModel>
  </diagram>
</mxfile>
